<?xml version="1.0" encoding="UTF-8"?>
<svg id="Layer_1" data-name="Layer 1" xmlns="http://www.w3.org/2000/svg" viewBox="0 0 512 512">
  <defs>
    <style>
      .cls-1 {
        fill: none;
        stroke: #000;
        stroke-miterlimit: 10;
        stroke-width: 4px;
      }

      .cls-2 {
        fill: #000;
      }

      .cls-2, .cls-3 {
        stroke-width: 0px;
      }

      .cls-3 {
        fill: #fff;
      }
    </style>
  </defs>
  <rect class="cls-3" width="512" height="512" rx="27.1" ry="27.1"/>
  <g>
    <path class="cls-2" d="M125.83,315.92c9.98,6.14,24.58,11.26,39.94,11.26,22.78,0,36.1-12.03,36.1-29.44,0-16.13-9.22-25.34-32.51-34.3-28.16-9.98-45.57-24.58-45.57-48.9,0-26.88,22.27-46.85,55.81-46.85,17.66,0,30.46,4.1,38.14,8.45l-6.14,18.18c-5.63-3.07-17.15-8.19-32.77-8.19-23.55,0-32.51,14.08-32.51,25.86,0,16.13,10.5,24.06,34.3,33.28,29.18,11.26,44.03,25.34,44.03,50.69,0,26.62-19.71,49.66-60.42,49.66-16.64,0-34.82-4.87-44.03-11.01l5.63-18.69Z"/>
    <path class="cls-2" d="M277.38,170.51v72.19h83.46v-72.19h22.53v172.54h-22.53v-80.89h-83.46v80.89h-22.27v-172.54h22.27Z"/>
  </g>
  <rect class="cls-1" x="50" y="50" width="412" height="412"/>
</svg>